<?xml version="1.0" encoding="UTF-8"?>
<svg id="_图层_1" data-name="图层 1" xmlns="http://www.w3.org/2000/svg" width="411.5" height="418.2" viewBox="0 0 411.5 418.2">
  <defs>
    <style>
      .cls-1 {
        fill: #ac1f18;
        stroke-width: 0px;
      }
    </style>
  </defs>
  <path class="cls-1" d="m392.6,176.5c0,19.7,0,39.3,0,59,0,9.1.1,18.1.3,27.2.7,26.5.4,53.1.9,79.7.3,15.1,1.4,30.3,0,45.4-.5,5.9-4.3,8.8-9.8,7.1-2.4-.7-4.6-2.1-1.6-4.8,5.4-4.9,7.2-11.3,6.7-18.1-1.6-20.8-2-41.6-1.7-62.4.3-18.8-.6-37.6.3-56.4.6-11.8-2.9-22.1-7.1-32.5-1.7-4.2-5-6.3-9-7.1-16.5-3.3-32.8-7.6-49.9-6.4-7.7.5-9.4,1.3-12.2,8.6-1.2,3.1-2.2,6.4-3.9,9.2-6.9,11.5,0,20.7,4.6,30.3.6,1.2,1.8,1.2,3,1.4,11.1,1.9,22.3,3.1,33.6,3.4,11.7.3,14,3.2,16.1,14.8,1.7,8.9,1.3,17.8.8,26.8-.8,15.1-.8,30.3-1.1,45.4,0,3.3-.4,6.6-.8,10-1.2,10.3-5.7,14.1-16.1,15.3-12.9,1.5-25.8,1.8-38.7,0-2.6-.4-5.3-.4-7.6-2-1.7-1.1-3.4-.8-5.3-.3-10.5,2.7-21,1-31.1-1.2-11.5-2.4-14.8-7.9-14.7-19.7,0-14.8,0-29.6,4.6-44,2.7-8.7,1.4-17.8,0-26.8-.4-2.3-.6-4.6-.6-7-.2-8.9,2.3-11.2,11-11.5,7.5-.3,14.9-1.5,22.2-2.9,2.9-.6,4.2-2.5,5.8-4.9,8.8-13.7,3.2-26.6-1.5-39.6-.9-2.6-3.5-3.1-5.8-3-10.4.3-21-1.3-31.3,2.1-2,.7-4,.4-5.9-.3-2-.7-4-1.7-6-2.4-7.1-2.5-11.5-.4-11.7,6.9-.4,14.1-3.6,28.1-1.8,42.3,1.1,8.6-1.3,17.2-1.9,25.9-.8,11.6-2,23.2-1.8,34.9.3,19.4-3.9,38.4-3.3,57.8,0,.7-.1,1.3-.3,2-1,2.9-1.9,6.4-5.8,5.5-3.7-.9-3-4.3-2.5-7.1,3.6-19.5,4.6-39.3,5.2-59,.8-22.5,3.4-44.9,3.8-67.3.4-25.4,5.6-50.3,4.5-75.7-.2-4.7,1-9.3,2.4-13.7,1.7-5.6,2.8-11.3,2.7-17.2-.2-20.3.9-40.7-2.1-60.9-.9-5.9-1.3-11.9-4-17.4-1.1-2.2-1.3-4.8,1.3-6.1,2.7-1.4,5.7-2.4,8.1.7,2.7,3.5,4.5,7.2,5.1,11.7,2.3,17.6,1.6,35.2.9,52.8-.3,8.2,4.4,14.5,7.3,21.5.8,2,3,2.1,4.8,1.9,11.1-1.7,22.2.8,33.3,0,4.3-.3,6.6-1.9,8.4-5.7,4.8-10.4,7.7-21,7.2-32.7-.6-13.8,0-27.6,0-41.4,0-7.2-1.3-14.5-.7-21.8.2-2.6.3-5,3.4-5,3.2,0,3.4,2.2,3,5-.6,3.7,1.9,6.9,2.4,10.6,2.2,15.8,4.6,31.6,7.3,47.3,1.7,10,2,20.5.8,30.8-.4,3.5,1.6,4.2,3.8,4.7,7.4,1.5,15,2.4,22.4,4.3,2.5.6,5.2,1,7.7,1.8,3.5,1.1,7.1,2,10.6,2.9,19.5,5,26.1-13.8,22.2-26.1-1.5-4.7-4-9.1-6.2-13.6-2.3-4.8-7.1-2.6-10.8-3.3-5-.9-10.4,2.3-15.2-1.4-4.2,3.6-9.3.7-13.8,2.1-3.7,1.1-7.3.2-10.7-1.1-1.5-.6-2.9-1.7-2.5-3.8.4-2.1,2-2.7,3.7-2.5,12.2,1,24.4-.9,36.6,0,4.2.3,8.6-1.3,13-.5.9.2,1-1.1,1.3-1.9,1.5-3.7,3.1-7.2,6-10.2,1.4-1.4,3.2-3.4,1.7-6.6-1.3-2.8.5-6.2,1.2-9.2.3-1.4,1.2-3,3-2.8,1.5.2,2.2,1.8,2.2,3,0,4.2,0,8.5-.2,12.7,0,.8-.4,1.6-.4,2.4m.6,23.1c0,8.3.2,16.5.1,24.8,0,10-.4,20-1,29.9m-36.8,138.1c0-5.5-.2-11,0-16.5.2-6.3-3.7-10.9-6.7-15.7-.9-1.4-2.5-2.7-4.4-2.9-12.7-.8-25.5-1-38.2-2.3-11.8-1.2-23.9-.3-35.2,4.5-2.3,1-4,1.8-5,4.1-3.1,7.5-6.1,15-5.6,23.5.3,4.2-1.1,8.5-1.8,12.8-2.3,14.5-2.6,29.1-2.8,43.7,0,2.8.5,6,3.7,7,3.8,1.2,7.6,3.3,11.6,2.7,11.5-1.9,22.9,1.1,34.3,0,6.1-.6,11.8.6,17.6,2.3,8.9,2.7,21.4-.6,25.4-6.8,2.5-3.9,4.7-8.2,5.1-13.1,1.1-14.4,2.3-28.8,2-43.3Zm-122.9-113.1c-1.5,8.6,6,16,16,14,2.3-.4,4.6-.8,6.9-.7,24.1.6,48.1-1.8,72.2-2.4,12.6-.3,24.8,1.5,37,4.4,14.2,3.3,14.3,2.9,19.1-10.4,2.8-7.7,2-14.6-2.6-21.7-3-4.6-8.8-8.4-7.1-15.3.2-.7-.5-.6-1-.7-4.6-1.3-9-2.7-14.1-1.5-5.2,1.3-10.4,1.2-15.6-1.1-7.6-3.4-16-4.2-24.1-6-3-.7-6.2,0-8.5,2.1-6.7,6.1-14.3,8.7-23.3,6.8-1.1-.2-2.3,0-3.5,0-13,.6-25.9,1.6-38.9,0-2.4-.3-3.4,1.2-4.8,2.8-7.2,8.4-6.9,18.8-7.8,29.6Z"/>
  <path class="cls-1" d="m109.7,20c2.3,1.6,4.1,3.9,5,6.5,3.6,9.7,10.6,12.3,20.5,12.9,15.5.9,31.2,0,46.5,3.9,6,1.6,12.6,1.2,18.7,2.9,6,1.6,7.1,3.3,7.3,9.5.4,7.7-1.2,14.9-4,21.9-1.9,4.7-2.7,9.7-3,14.6-1.2,20.8-3.6,41.6-1.8,62.4,1.6,18.5,2.1,37.2,6,55.5.4,2.1,1.9,4.9-1.6,5.8-3.2.8-3.9-1.8-5-4.3-2.5-5.9-1.2-12.1-2.1-18.1-1.6-12-3.1-24.1-3.1-36.3,0-13-1.2-25.9-.7-38.9.3-7.3.8-14.6,1.3-21.9.1-1.5.4-2.9-1.1-4-10.3-7.8-21.8-10.2-34.3-7.3-5.6,1.3-11.1,3.4-16.8,4.6-5.3,1.1-8.8,5.7-12.2,9.7-.7.8-.5,2,.2,2.8,4.5,5.5,7,12.4,13.3,16.6,4,2.7,7.3,2.6,10.8-.4,2.4-2.1,4.9-4.1,7.4-5.9,2.3-1.7,4.2-1.5,5.3,1.6,1.5,4.3,1.9,8.8,2.2,13.3,1.1,16.2,0,32.2-1.6,48.3-.9,8.9.2,18-1.1,26.9-.2,1.5,0,3-1.4,4.1-1,.9-2.2,1.6-3.6.9-1.3-.6-1.4-1.8-1.2-3,2.8-23.8,2.1-47.8,4-71.7.1-1.7.1-3.3-.5-4.9-.8-2.1-2-2.9-4.2-1.6-4.1,2.5-8.3,4.9-12.5,7.4-2.1,1.2-2.9,3.1-2.8,5.4.1,2.8-.3,5.7.2,8.5,1.9,12.3-.2,24.3-3.7,36-3.5,11.5-9.7,21.5-19.1,29.2-6.8,5.6-20.4,5.9-28.9.3,3.4-.4,5.8-.8,8.3-1,12.9-1.2,20.4-9.4,25.8-20.2,5.1-10.2,8.1-21.1,8.9-32.6.3-4.7-1.8-8.7-3.9-12.7-.9-1.8-2.7-1.5-4.4-1.3-4.2.5-7.2,3.2-10.5,5.4-16.1,11-32.1,22-49.8,30.3-4,1.9-7.8,4.4-11.5,6.8-1,.6-1.8,1.8-3,.7-1.2-1.2-.7-2.5.2-3.6,1.7-2.1,3.7-3.9,6.2-5,5.2-2.1,10.3-4.7,15.1-7.3,11.9-6.4,23-14.5,34.4-22,3.7-2.5,7.6-4.7,10.6-8.2,1.9-2.3,4.9-2.6,7.7-3.3,1.6-.4,3.9-.6,3.9-2.5,0-5.1.1-10.4-1.9-15.2-1.1-2.5-3.7-3-5.8-1-9.2,8.4-20.5,13.3-31.1,19.4-5.5,3.2-11,6.3-16.9,8.6-5.7,2.3-10.9,5.3-16.3,7.9-2.8,1.4-5.7,1.6-8.8,1.5-1.5,0-3.4.1-3.8-1.6-.4-2,1.6-2.2,3-2.7,5.8-2.1,11.3-4.8,16.9-7.5,16.2-7.8,31.7-16.8,47.1-26.1,1.6-.9,3-2.1,4.4-3.2.8-.6,1.4-1.4,1.1-2.6-.6-2.2-8.6-9.1-10.9-8.8-4.9.6-9.9.6-14.8,2-18.3,5.1-36.7,9.6-55.5,12.4-4.7.7-9,3.3-12.3,6.2-2.6,2.2-1.9,7.1-1.9,10.8,0,11.6,1.4,23.2.9,34.9-.3,5.8,1.5,11.7,1.4,17.7,0,5.3-1.3,10.5-1.5,15.8,0,2.4-.5,5.1-2.8,6.7-1.5,1-3.1,2.6-5,1.6-2-1-1.7-3.1-1.2-4.9,4.4-16.4,1.5-32.9,1-49.3-.3-10.1-1.9-20.5.6-30.2,2-7.8-1.3-14.3-1.6-21.5-.7-15.3-1.5-30.5.3-45.8.3-2.6-.2-5.3,0-8,.4-4.8,3.2-7.6,8-8,13.3-1.2,26.5-3,39.8-3.4,8.4-.3,16.8-1.1,25.2-1.3,7.2-.1,11.7-4.4,15.6-9.3,2.8-3.5,1.7-6.3-2.7-7.3-3.7-.9-7.6-1-11.4-1.5-1.7-.2-3.8-.4-3.9-2.4-.1-2.5,2.3-2.4,4.1-2.6,5.5-.5,10.9-.1,16.3,1.3m9,27.2c-4.2-.3-8,1.7-12.3,1.7-9.5,0-18.9.5-28.4.9-13.5.6-26.9,1.8-40.2,3.9-8.6,1.4-10.2,3.1-9.9,14.1.2,4.6,5.1,8.8,10.9,8.8,7.7,0,15.3.2,22.9-1,13.6-2,27.3-.7,40.9-.5,12.2.2,24.2,2.1,36.3,2.7,13.4.7,26.9-1.7,40.4-.2,2.5.1,5,.5,7.5.4,9.3-.4,14.5,0,16.2-12.8,1.3-9.4.2-11.7-9.3-13.1-15.5-2.2-31-4.4-46.7-4.3-7,0-14-.3-21-.4m-49.1,37.4c-11.4-1.7-22.8-.8-34.2.4-3.4.4-7.2.4-10.2,1.8-7,3.4-9,11.3-5.7,20.5,1.4,4,7.1,6.2,13.9,4.8,27-5.3,54.4-9,79.7-21,2.1-1,5-1.6,4.4-4.5-.6-2.8-3.6-1.9-5.6-1.9-14.1,0-28.2,0-42.3,0Z"/>
  <path class="cls-1" d="m77.2,241.2h24c0,.6,0,1.1,0,1.7-7.5,1.3-15,2.6-22.7,4,1.2,1.5,3.1,1.7,5,2,5.6,1,11.1,2.1,16.6,3.3,1.3.3,3.4.2,3.6,2.1.1,1.7-1.7,2.2-3,3.1-3.6,2.4-7.1,4.9-10.7,7.3-2.1,1.4-2.9,3.2-2.3,5.6.9,3.9.9,7.9.7,11.9-.1,3.2,1.2,4.9,4.3,5.7,3.5.9,7,2.1,10.5,3.3.9.3,2.2.5,2,1.7,0,.7-.8,1.4-1.5,1.8-2.2,1.3-4.4,2.3-6.6,3.5-1.2.7-2.3,1.4-1.8,3.1.4,1.4,1.2,2.2,2.7,2.6,6,1.8,12.3-2.7,13-9.4.3-2.8,0-5.8.6-8.5,3.3-12.7,1.8-25-2.6-37.1-1.5-4-1.7-8.1-1.7-12.3,0-4.1.3-8.3-1.4-12.3-.8-2-1.8-4.8,1.3-6,2.5-1,4,.4,5.6,2.7,2.7,3.8,6.9,5.8,11.6,5.6,18.7-.5,37.3,1,55.9,1.1,2.3,0,4.7.1,7,.4,2.7.3,4.9,1.7,5.4,4.5,1.1,6.9,5.4,11.3,11.4,14.2,5.7,2.8,7.2,7.1,6.2,13.1-1.3,7.9-.6,16-.6,24,0,4.7-1.7,6.8-6.5,6.2-12.1-1.6-24.2-.8-36.3-.8-1.9,0-4.8.6-4.8-2.1,0-3.1,3.1-2.3,5.1-2.3,7.6-.3,15.3-.6,23-.8,5-.2,9.3-1.9,13.3-5.1,3.4-2.7,3.5-5.9,2.6-9.4-.9-3.5-3.9-3.4-6.8-3.6-11-.6-22,.8-32.8.6-10.6-.2-21.3,0-31.9-.4-7.5-.2-11.3,3.3-11.7,10.5-.3,4.2-2.3,7.6-4.5,10.9-4.4,6.6-3.2,10.1,4.3,12.5,4.1,1.3,6.4,4,7.5,8,2.2,8.2,2.4,16.8,3,25.2.3,4.1,1.4,5.6,5.5,5.7,16.8.2,33.6.6,50.4,1,3.2,0,6.3-.5,9.4-.9,4.3-.5,5.4-3.5,5.8-7,.4-3.3-1.5-5.2-4.6-6.2-2.1-.7-4-1.7-6.2-1.7-1.3,0-2.9,0-3.3-1.6-.5-1.6.4-3.4,1.7-3.7,7.8-2,11.5-7.3,13.2-14.8.4-1.8,2.3-3.7,4.6-3,2.6.8,1.7,3.2,1.6,5.1-.7,10.1-1.5,20.3-2,30.4-.2,3.4-1.7,4.8-5,5.7-16.1,4.4-32.3,3.4-48.5,1.5-8.1-1-16.3,0-24.4-1.5-3.1-.5-4.2-1.7-4.6-4.6-1.3-8.2-.6-16.6-2-24.9-.8-4.6-2.7-6.5-7.3-5.6-5.6,1.1-11.2,1.7-16.8,2-3.9.2-6.5,2.2-6.3,6.2.3,6.2-1.1,12.2-1.1,18.3,0,6.2-1,7.4-7.3,7.5-3.1,0-6.3.7-9.4,1-3,.3-4.5,2.3-4.6,5-.1,4.6-.5,9.1-1.5,13.6-.6,2.7-.7,5.5,1.1,8.2,1.9,2.8,1.5,6.2.3,9.1-1.2,3.1-.7,5.8.8,8.6,2.1,3.9,2,8,.3,11.9-.5,1.3.2,1.8.7,2.6.7,1.1.7,2.3-.4,3.1-1.1.9-2.5.8-3.8.6-1.9-.4-1-1.8-.9-2.8.4-4.5-1.1-8.8-1.2-13.1-.3-6.3-1.7-12.5-.6-19.2.9-5.3-.9-11.6-.9-17.6,0-6.9,1.4-13.9-.8-20.8-.3-1-.2-2.3,0-3.5.4-2,3.1-4.6,1.4-5.9-3.8-2.8-6.9-7.1-12.3-7-5.3,0-10.3-2.4-15.8-1.7-3.2.4-5.5-2.5-5.4-6,.3-9.7-2.4-19.1-3-28.7-.2-3-2.6-4.5-3.1-7.2-1.5-8-1.4-15.9,0-23.8.5-3.1,1.6-6.2,1.9-9.3.4-5,4.4-7.8,6.5-11.8.5-.9,1.8-.8,2.7-.3,1.5.8,1.8,2.3,1.7,3.9-.7,5.6-1.3,11.2-2.1,16.9-.8,6.2-.3,12.4.6,18.6,1.3,9.2,2.2,18.5,1.6,27.7-.4,6.6,1.6,11.8,6.4,15.8,4.3,3.6,9.7,1.9,14.4,1.2,3.4-.5,3.9-4.7,4-7.9.1-3.2,0-6.3-.3-9.5-.6-6.9.7-13.7,1.4-20.5.2-1.7.3-3.5-.4-4.9-4.4-8.6-1.6-17.7-2.1-26.6-.1-2.3-.4-3-2.5-3.8-5.4-2.2-10.8-4.3-15.9-7.3-1.5-.9-3.3-1.4-2.4-3.6.8-2,.4-4.9,3.8-5,2.3,0,4.6-.4,7-.5,14.9-.8,29.8-1.6,44.8-2.4,1.8,0,4.1-1.2,5,.7,1.1,2.5-1.4,3.9-3.1,5-5.5,3.8-11.1,7.4-16.6,11.1-2.1,1.4-4.1,2.8-6.1,4.2,0,.5.2,1.1.3,1.6Zm-9.2,16.4c2.6,5.8,4,10,3,15.2-2.9,15.7-3.5,31.5-1.2,47.4.3,2.3.2,4.7-.4,6.9-1,3.5,1.3,8.7,4.7,9.5,10.3,2.5,16-2,15.2-12.5-.3-3.8-.8-7.5,0-11.4.6-3.1,1.6-6.4,2.3-9.2,1.5-5.5-1.9-5.1-4.4-5.8-3.3-.9-6.9-1.2-10.3-1.9-1.6-.3-2.7-1.3-3.3-2.8-.5-1.6.5-2.8,1.8-3.1,8.8-2.6,10-8.4,7.2-16.1-.2-.5-.1-1-.1-1.5.1-2.8-1.1-4.2-4.1-4.4-2.4-.2-5.3-.4-6-3.5-1.1-5.2-3-10.3-2.3-15.7.4-3.3.3-6.6-1.4-9.7m87.7,9.7c10.6.2,18.5,0,26.2-1.2,3.3-.5,7.3-1.1,7.5-5.7.2-4.7-2.8-8.1-7.7-8.8-1.5-.2-3-.2-4.5-.2-9.3,0-18.6,0-28,0-10.6-.1-21.2-2.3-31.6,1.5-2.2.8-4.8,1-4.7,4.2.1,3.3-.2,6.9,3.6,8.6,4,1.7,8.1,3,12.5,2.8,9.8-.4,19.5-2.1,26.6-1.2Zm-17,5.1c-2.7.1-5.4,0-8,.5-2.2.4-5.7,0-5.4,3.7.3,3.5,3.1,3.8,6,3.6,3.8-.3,7.8-1.3,11.4-.7,14.1,2.3,28.2-1.2,42.4.6,5.5.7,11.3-.3,16.9-.7,3.5-.3,4.1-2.2,1.9-5-1.3-1.6-3-2.5-5-3-3.9-1-8-.9-11.9-.6-16.1,1.4-32.3.1-48.4,1.7Zm-92-29c4.1,3.3,7.7,3.6,10.8,5,3.3,1.5,6.9,3.7,10.4,2.6,8.7-2.8,17.3-6.1,25.4-10.8-15.2.2-30.2,1.3-46.6,3.3Z"/>
  <path class="cls-1" d="m30.7,7.5c-1.1,1.7-2.8,1.7-3.8.5-2.6-3.2-5-1.5-7.6-.4-1.3.6-2.9,1.2-4.3,1.2-4,0-6.3,1.2-5.6,5.8.2,1.3-.4,2.9-2,2.9-2,0-1.9-1.6-1.8-2.9,0-2.4-2.3-4.2-.8-7.1C7.6,2.1,13.3.5,17.8.6c11.3,0,22.7-.8,34-.2,8,.4,16,.4,23.8,1.4,8.6,1.1,16.8-2.9,25.4-.9.6.1,1.5,0,1.9.3,5.2,4.5,10.3.5,15.6.3,4.9-.1,10-2,14.9,1.3,2.2,1.5,5.2,1.2,8,1.4,13.5.6,26.9-1.6,40.5-.3,7.1.7,15.1-1,22.6-.5,4.3.3,8.4.4,12.4-1.4,1.2-.5,3.3-1.8,4.1.8.2.6.3,1.6,1,.5,3.1-4.7,7.8-3,11.8-2.6,15.4,1.5,30.9-1.5,46.2.6,5.5.8,11.4-1.7,16.6,1.7,4.3-3.6,5.8,1.5,8.5,2.8.9.4,1.7,1.3,1.2,2.4-.4.9-1.3.9-2.2.8-10.2-.4-20.4-1.3-30.6-1.1-4.5.1-9.1,1-13.7,1.1-5.2.1-10.2-.6-15.3-1.4-3.9-.6-8.2.1-12.2.8-6.7,1.1-13.1.9-19.7-.8-2.6-.6-5.5.5-8.3.5-11.1,0-22.3-.2-33.4.1-8.6.3-17.2,1.4-25.7,0-4.2-.7-8.2-1.6-12.4.5"/>
  <path class="cls-1" d="m122.5,8.1c-8-1.7-15.9.5-23.8.5-7.2,0-14.5,1.7-21.7,0-1.1-.3-2.4-.4-3.5-.2-11.3,1.9-22.6-.5-33.8-.6"/>
  <path class="cls-1" d="m401.2,281.9c1.5-10.4,1.2-21.8.9-33-.5-17.2,1-34.5.3-51.7-.5-11.9-.3-23.8.3-35.7.6-11.1-1.7-22.4-1-33.6.8-12.7-1.3-25.3,0-37.8,1.1-11,1-21.7-.2-32.6-.2-1.8-.3-4.1,2.1-4.8,1.7-.5.9-1.4.5-2.2-2.7-5.3-1.1-11.1-1.7-16.6-.2-1.4.7-2.7,2.4-2.5,1.4.2,1.6,1.7,1.5,2.8-1.3,9.7,2.4,19.1,2.5,28.7,0,.3.4.9.3.9-4.9,3.6,1.2,8.3-1.4,12.4-2.1,3.4,1.4,6.8,1.6,10.5.5,8.9.6,17.9.8,26.8.3,10-2.1,20.1-2,30.1.1,7.9.3,15.9.4,23.8,0,4.6.5,9.2.4,13.7-.1,6.4-1.1,12.7-.2,19.2,1.6,11.6-1.8,22.9-2.1,34.4-.1,5.3,1.9,10.5,1,15.9-.4,2.4,0,5-1.8,7.1-1.8,2.1.6,3.7.7,5.5.3,11.5.7,22.9,1,34.4,0,1.3.1,3-1.7,3.1-1.8,0-2.7-1.2-3.3-3-1.7-5-.6-10.1-1.5-16Z"/>
  <path class="cls-1" d="m8.7,138.7c-.8,11.3,1.9,22.6.6,33.9-.9,8-.2,15.9-.2,23.8,0,10.9-1.2,21.9,0,32.8.7,6.6-.7,13.2-.5,19.9.3,17.4-.5,34.8.2,52.1.4,10,.5,20-.3,29.8-.8,10.3.9,20.4.6,30.6,0,.9,2.2,4.8-2.3,4-.6-.1-.1,1.3.2,2.1,2.7,5.7,0,12,1.6,17.8.2.8-.8,1.4-1.7,1.3-1.7-.2-2.3-1.6-2-2.9,1.2-6.3-.8-12.2-1.4-18.3-.3-3.1-.5-6.3-.9-9.4-.2-2-2.1-4.3,2-4.5,1,0,.3-1.4-.2-1.9-1-1.1-2.4-2.5-1.7-3.9,3.1-6.9-1.3-13.4-1-20.2.4-6.9-1-13.9-.8-20.8.2-9.2.4-18.5,2-27.6.7-3.6-.6-6.4-.5-9.6.6-12.9-1-25.7.1-38.6.4-4.3,2.9-7.7,3.2-12.2.7-13.9-1.2-27.5-2.1-41.2-.3-5.3-1.4-10.7,1.7-15.5,1.5-2.3-.7-3.7-.8-5.6-.3-11.5-.7-22.9-1.1-34.4,0-1.3-.1-3,1.7-3,1.8,0,2.9,1.2,3.1,3.2.9,6.1.5,12.2.5,18.4Z"/>
  <path class="cls-1" d="m274.5,413c-15.1,1.1-30.1,3.1-45.3.8-2.9-.4-5.9,1.5-9.2,1.4-8.6-.2-17.3-.3-25.9,1-1.5.2-3.7,1.9-4.3-1.3-.1-.6-.6-.8-.9-.2-3.2,5.4-8.5,3.1-12.7,2.7-15.1-1.5-30.2.8-45.3-.4-2.3-.2-4.7.3-6.5-1.7-.3-.3-1.2-.7-1.2-.7-3.1,4-7.3,0-9.5.9-4.8,2-5.4-2.5-8-3.4-.7-.2-1.3-1.2-.9-2.1.4-.9,1.3-1,2.1-.9,11.1,1.2,22.1-.6,33.2,0,6.8.4,13.6.4,20.4.8,3.7.2,7,1.1,10.9-.7,3.2-1.5,7.5-.2,11.2.1,7.1.5,14.1-.8,21.3.2,8.3,1.1,16.9-.7,25.3-.1,14,1,28.2-2.6,42.1,1.6,1.3.4,2.6.5,3.1,1.9h0Z"/>
  <path class="cls-1" d="m274.5,413.1c3.8-5.6,9.5-4.9,14.3-3,4.3,1.8,9.4-1.6,13.1,2.5.7.8,1.1-.7,1.3-1.5.2-1.2,1-1.6,2.1-1.5,14.9,1.1,29.7-.2,44.5-.3,8.7,0,17.7-1.3,26.2.9,3.1.8,5.2-.1,7.8-.5.7,0,1.5-.5,2-.2,2.3,1.5,4.2,2.1,7.2.7,2.9-1.4,2.3,2.8,3.4,4.4,1.3,1.8-.9,2.5-2.2,2.9-1.6.4-3.4.8-4.9.5-12.6-2.5-25.2.8-37.9-1.1-11.5-1.7-23.5-1-35.3.7-3.8.5-7.9.7-10.5-3.3-.3-.5-.7-.7-1.2-.4-3,2.3-6.9.7-10,2-2.5,1-4.6,2.1-6.3-1-.5-.9-.7-.4-1.4,0-4.6,3-8.1,2.4-12.1-1.8,0,0,0,0,0,0Z"/>
  <path class="cls-1" d="m9.4,35.4c-2.1,14.1.4,28.1.2,42.2-.1,11.1-.5,22.1-.9,33.2,0,1.5.6,4-1.6,4.1-1.9.1-3.1-2-3.4-3.8-.5-4-.8-8,.2-11.9.5-2-.3-3.1-1.1-4.8-2.9-6.4-4.3-13.1-.7-19.8.5-1,.8-1.8.5-2.8-2.2-6.3-.4-12.5,0-18.8.2-5.4-2.4-10.3-1.4-16,1-5.4,3.7-10.7,2.5-16.5-.2-1,.7-1.4,1.6-1.5,1.5,0,2.6.5,2.8,2.1.5,4.8,2.3,9.4,1.4,14.3Z"/>
  <path class="cls-1" d="m409,359.1c-.6,4.5-.7,8.9.8,13.6,1.5,4.8.3,10.2-1.4,15.1-.9,2.7-1.2,5.5-1.2,8.2,0,1.3.9,2.8-1.3,2.9-1.6,0-2.2-1.1-2.6-2.5-1.2-4.2-1-8.6-1.1-12.9-.4-13.9-.8-27.8-.8-41.7,0-11.4.5-22.8.9-34.2,0-1.6-.3-3.9,2-4,2.4,0,3.3,2.1,3.2,4.2-.4,7.9.4,15.5,2.7,23.3,1.1,3.8,3.1,9.6-2.5,13.1-.5.3.5,3.3,1.1,4.9"/>
  <path class="cls-1" d="m17.4,412.1c7-3.4,13.2-2.1,19.2-2.6,2.3-.2,4.6.4,6.9.9,1.1.2,2.2,1.1,2.3,2.4.2,1.8-1.3,1.3-2.3,1.7-6.1,3.1-11.9,3-17.9-.6-1.9-1.2-4.6-1.1-8.2-1.8Z"/>
  <path class="cls-1" d="m390.1,6.6c-.2.9-1,1.4-1.8,1.4-6.3-.2-12.5,1.4-18.8.3-2.1-.4-4.2-1-4.4-3.3-.2-2.8,2.7-2,4.2-2.4,7.6-2.5,14.5-.5,20.8,4Z"/>
  <path class="cls-1" d="m160.2,323c-2.3,0-4.6,0-7,0-1.6,0-3.1-.5-3.4-2.3-.3-1.5.9-2.4,2-3.2,2.5-1.8,15.5-1.9,17.9-.2.9.6,1.6,1.3,1,2.5-.8,1.6-1.2,3.6-3.6,3.6-2.3,0-4.6-.2-6.9-.3,0,0,0,0,0-.1Z"/>
</svg>